<svg xmlns="http://www.w3.org/2000/svg" width="371.25" viewBox="0 0 371.25 74.25" height="74.25" version="1.0"><defs><clipPath id="a"><path d="M 189.464844 48.976562 L 199.859375 48.976562 L 199.859375 59 L 189.464844 59 Z M 189.464844 48.976562"/></clipPath><clipPath id="b"><path d="M 190 57 L 195 57 L 195 61.597656 L 190 61.597656 Z M 190 57"/></clipPath><clipPath id="c"><path d="M 197.164062 54.714844 L 199.859375 54.714844 L 199.859375 57.578125 L 197.164062 57.578125 Z M 197.164062 54.714844"/></clipPath></defs><g clip-path="url(#a)"><path fill="#FFF" d="M 199.46875 53.777344 C 195.183594 53.398438 194.863281 53.09375 194.46875 48.984375 C 194.074219 53.09375 193.753906 53.398438 189.464844 53.777344 C 193.753906 54.152344 194.074219 54.460938 194.46875 58.566406 C 194.863281 54.460938 195.183594 54.152344 199.46875 53.777344"/></g><g clip-path="url(#b)"><path fill="#FFF" d="M 192.699219 57.933594 C 192.550781 59.5 192.425781 59.617188 190.796875 59.761719 C 192.425781 59.902344 192.550781 60.023438 192.699219 61.589844 C 192.847656 60.023438 192.972656 59.902344 194.605469 59.761719 C 192.972656 59.617188 192.847656 59.5 192.699219 57.933594"/></g><g clip-path="url(#c)"><path fill="#FFF" d="M 198.625 57.324219 C 198.722656 56.308594 198.800781 56.234375 199.863281 56.136719 C 198.800781 56.042969 198.722656 55.96875 198.625 54.953125 C 198.527344 55.96875 198.445312 56.042969 197.382812 56.136719 C 198.445312 56.234375 198.527344 56.308594 198.625 57.324219"/></g><g fill-opacity=".522"><g><g><path d="M 33.574219 -23.4375 C 32.917969 -23.4375 32.441406 -23.199219 31.847656 -22.421875 C 29.582031 -19.5 27.253906 -19.082031 23.316406 -19.082031 C 21.886719 -19.082031 21.171875 -18.1875 21.171875 -17.234375 C 21.171875 -15.746094 22.363281 -15.328125 23.972656 -15.328125 C 25.167969 -15.328125 26.300781 -15.445312 27.375 -15.625 C 27.492188 -14.96875 27.550781 -14.195312 27.550781 -13.539062 C 27.550781 -7.039062 23.855469 -3.21875 18.84375 -3.21875 C 13.417969 -3.21875 8.945312 -7.691406 8.945312 -17.054688 C 8.945312 -30.953125 17.117188 -38.703125 23.378906 -38.703125 C 26.179688 -38.703125 27.613281 -37.214844 27.613281 -34.707031 C 27.613281 -33.457031 27.195312 -32.085938 26.417969 -30.535156 C 26.242188 -30.175781 26.121094 -29.757812 26.121094 -29.339844 C 26.121094 -28.445312 26.894531 -27.671875 27.910156 -27.671875 C 28.566406 -27.671875 29.28125 -28.03125 29.757812 -28.925781 C 30.890625 -31.070312 31.488281 -33.160156 31.488281 -35.007812 C 31.488281 -39.480469 28.507812 -42.460938 23.257812 -42.460938 C 14.550781 -42.460938 4.769531 -32.917969 4.769531 -17.292969 C 4.769531 -5.308594 10.617188 0.535156 18.84375 0.535156 C 26.242188 0.535156 31.667969 -4.890625 31.667969 -13.417969 C 31.667969 -14.550781 31.488281 -15.863281 31.25 -16.9375 C 32.5625 -17.652344 33.695312 -18.605469 34.589844 -19.738281 C 35.246094 -20.574219 35.425781 -21.171875 35.425781 -21.648438 C 35.425781 -22.601562 34.589844 -23.4375 33.574219 -23.4375 Z M 33.574219 -23.4375" transform="translate(69.211 57.258)"/></g></g></g><g fill-opacity=".522"><g><g><path d="M 29.402344 -13.894531 C 26.539062 -6.796875 24.628906 -3.457031 23.078125 -3.457031 C 21.828125 -3.457031 20.875 -4.472656 20.875 -7.933594 C 20.875 -13.777344 21.707031 -20.753906 21.707031 -22.007812 C 21.707031 -23.257812 20.875 -24.035156 19.859375 -24.035156 C 18.84375 -24.035156 18.070312 -23.257812 17.652344 -22.066406 C 16.101562 -23.199219 14.195312 -23.734375 12.644531 -23.734375 C 7.039062 -23.734375 1.429688 -18.070312 1.429688 -9.78125 C 1.429688 -3.398438 5.007812 0.238281 9.601562 0.238281 C 12.285156 0.238281 14.96875 -1.015625 17.355469 -4.652344 C 18.25 -1.371094 20.15625 0.238281 22.839844 0.238281 C 26.300781 0.238281 28.984375 -3.699219 32.265625 -12.644531 C 32.382812 -12.941406 32.441406 -13.238281 32.441406 -13.476562 C 32.441406 -14.433594 31.726562 -15.089844 30.953125 -15.089844 C 30.355469 -15.089844 29.757812 -14.730469 29.402344 -13.894531 Z M 10.199219 -3.457031 C 7.394531 -3.457031 5.367188 -5.488281 5.367188 -9.960938 C 5.367188 -16.160156 9.363281 -20.21875 13.359375 -20.21875 C 15.089844 -20.21875 16.816406 -19.261719 17.355469 -18.429688 C 17.472656 -9.066406 14.371094 -3.457031 10.199219 -3.457031 Z M 10.199219 -3.457031" transform="translate(104.815 57.258)"/></g></g></g><g fill-opacity=".522"><g><g><path d="M 26.71875 -13.894531 C 23.675781 -6.621094 22.125 -3.699219 20.574219 -3.699219 C 19.679688 -3.699219 19.082031 -4.292969 19.082031 -5.726562 C 19.082031 -9.542969 20.039062 -15.386719 20.039062 -18.1875 C 20.039062 -21.46875 17.832031 -23.675781 14.550781 -23.675781 C 11.449219 -23.675781 8.527344 -21.886719 6.261719 -18.488281 C 6.382812 -19.738281 6.5 -20.875 6.5 -21.648438 C 6.5 -22.960938 5.605469 -23.617188 4.652344 -23.617188 C 3.699219 -23.617188 2.683594 -22.902344 2.5625 -21.589844 C 2.148438 -16.878906 1.492188 -6.621094 1.492188 -1.910156 C 1.492188 -0.597656 2.445312 0.0585938 3.398438 0.0585938 C 4.414062 0.0585938 5.425781 -0.597656 5.425781 -1.910156 C 5.425781 -3.996094 5.488281 -6.261719 5.605469 -8.585938 C 6.382812 -15.207031 10.375 -20.039062 13.597656 -20.039062 C 15.207031 -20.039062 16.101562 -19.082031 16.101562 -17.234375 C 16.101562 -15.207031 15.148438 -9.78125 15.148438 -6.082031 C 15.148438 -1.96875 17.117188 0 19.976562 0 C 23.378906 0 25.703125 -2.863281 29.582031 -12.644531 C 29.699219 -12.941406 29.757812 -13.238281 29.757812 -13.476562 C 29.757812 -14.433594 29.042969 -15.089844 28.269531 -15.089844 C 27.671875 -15.089844 27.074219 -14.730469 26.71875 -13.894531 Z M 26.71875 -13.894531" transform="translate(132.248 57.258)"/></g></g></g><g fill-opacity=".522"><g><g><path d="M 31.667969 -13.894531 C 29.339844 -8.289062 26.417969 -3.757812 24.273438 -3.757812 C 22.125 -3.757812 21.113281 -7.632812 20.574219 -12.164062 C 23.558594 -17.117188 29.28125 -28.386719 29.28125 -36.082031 C 29.28125 -40.136719 27.253906 -42.28125 24.273438 -42.28125 C 20.21875 -42.28125 16.398438 -38.527344 16.339844 -23.675781 C 15.386719 -24.273438 14.253906 -24.628906 12.882812 -24.628906 C 5.964844 -24.628906 1.429688 -15.984375 1.429688 -8.886719 C 1.429688 -3.101562 4.769531 0.121094 9.003906 0.121094 C 12.761719 0.121094 15.984375 -2.742188 17.832031 -6.320312 C 18.726562 -2.386719 20.992188 -0.0585938 23.734375 -0.0585938 C 28.507812 -0.0585938 31.90625 -6.144531 34.53125 -12.644531 C 34.648438 -12.941406 34.707031 -13.179688 34.707031 -13.476562 C 34.707031 -14.433594 33.933594 -15.207031 33.160156 -15.207031 C 32.621094 -15.207031 32.023438 -14.789062 31.667969 -13.894531 Z M 24.09375 -38.585938 C 24.867188 -38.585938 25.40625 -38.046875 25.40625 -36.199219 C 25.40625 -33.457031 23.378906 -24.691406 20.21875 -18.308594 C 20.15625 -19.679688 20.15625 -20.933594 20.15625 -22.007812 C 20.15625 -36.019531 22.722656 -38.585938 24.09375 -38.585938 Z M 9.363281 -3.578125 C 6.976562 -3.578125 5.367188 -5.25 5.367188 -9.125 C 5.367188 -14.253906 8.527344 -21.050781 13.359375 -21.050781 C 15.566406 -21.050781 17.054688 -19.324219 17.054688 -15.984375 C 17.054688 -8.410156 12.582031 -3.578125 9.363281 -3.578125 Z M 9.363281 -3.578125" transform="translate(156.998 57.258)"/></g></g></g><g fill-opacity=".522"><g><g><path d="M 27.96875 -13.894531 C 25.226562 -7.039062 23.378906 -3.519531 21.945312 -3.519531 C 20.457031 -3.519531 19.859375 -5.664062 19.859375 -10.792969 C 19.859375 -13.476562 20.039062 -16.9375 20.8125 -21.945312 C 20.992188 -23.140625 20.15625 -24.035156 19.023438 -24.035156 C 17.890625 -24.035156 17.117188 -23.378906 16.996094 -22.304688 C 16.757812 -20.039062 16.460938 -17.535156 16.28125 -14.96875 C 15.328125 -7.097656 11.628906 -3.519531 8.230469 -3.519531 C 6.203125 -3.519531 5.1875 -4.59375 5.1875 -6.796875 C 5.1875 -10.257812 6.621094 -16.460938 6.621094 -20.8125 C 6.621094 -23.019531 4.890625 -24.929688 2.804688 -24.929688 C 1.667969 -24.929688 0.894531 -24.210938 0.894531 -23.199219 C 0.894531 -21.648438 2.625 -22.007812 2.625 -19.738281 C 2.625 -16.699219 1.253906 -11.152344 1.253906 -6.558594 C 1.253906 -2.503906 3.996094 0.179688 7.933594 0.179688 C 11.269531 0.179688 14.253906 -1.730469 16.460938 -5.785156 C 17.292969 -1.429688 19.324219 0.179688 21.589844 0.179688 C 24.929688 0.179688 27.253906 -3.101562 30.832031 -12.644531 C 30.953125 -12.941406 31.011719 -13.179688 31.011719 -13.417969 C 31.011719 -14.433594 30.234375 -15.089844 29.460938 -15.089844 C 28.925781 -15.089844 28.328125 -14.730469 27.96875 -13.894531 Z M 27.96875 -13.894531" transform="translate(186.698 57.258)"/></g></g></g><g fill-opacity=".522"><g><g><path d="M 27.195312 -13.894531 C 24.867188 -8.410156 23.199219 -4.652344 20.574219 -2.445312 C 21.171875 -9.601562 21.589844 -16.28125 21.589844 -17.949219 C 21.589844 -21.171875 17.832031 -24.09375 12.941406 -24.09375 C 6.976562 -24.09375 1.429688 -18.546875 1.429688 -10.316406 C 1.429688 -4.53125 4.890625 -0.894531 9.78125 -0.894531 C 12.285156 -0.894531 14.789062 -2.085938 16.816406 -4.472656 C 16.757812 -2.980469 16.640625 -1.550781 16.519531 -0.296875 C 10.078125 2.980469 6.261719 5.605469 6.261719 9.960938 C 6.261719 12.703125 8.46875 14.910156 11.925781 14.910156 C 17.652344 14.910156 19.324219 9.898438 20.15625 2.324219 C 25.285156 -1.191406 27.550781 -5.902344 30.058594 -12.644531 C 30.175781 -12.941406 30.234375 -13.238281 30.234375 -13.476562 C 30.234375 -14.492188 29.519531 -15.207031 28.746094 -15.207031 C 28.207031 -15.207031 27.613281 -14.789062 27.195312 -13.894531 Z M 10.136719 -4.59375 C 7.335938 -4.59375 5.367188 -6.621094 5.367188 -10.375 C 5.367188 -16.101562 8.648438 -20.394531 13.476562 -20.394531 C 15.207031 -20.394531 16.996094 -19.441406 17.535156 -18.429688 C 17.292969 -11.75 16.28125 -4.59375 10.136719 -4.59375 Z M 11.925781 11.210938 C 10.855469 11.210938 10.136719 10.554688 10.136719 9.542969 C 10.136719 7.691406 12.285156 5.84375 16.101562 3.816406 C 15.386719 9.003906 14.195312 11.210938 11.925781 11.210938 Z M 11.925781 11.210938" transform="translate(212.7 57.258)"/></g></g></g><g fill-opacity=".522"><g><g><path d="M 18.488281 -13.894531 C 17.117188 -10.257812 13.777344 -3.757812 10.617188 -3.757812 C 8.289062 -3.757812 6.320312 -6.796875 5.902344 -12.761719 C 13.957031 -21.410156 17.117188 -28.804688 17.117188 -35.425781 C 17.117188 -39.539062 15.027344 -41.925781 12.046875 -41.925781 C 5.308594 -41.925781 1.847656 -32.742188 1.847656 -15.445312 C 1.847656 -5.007812 5.488281 -0.0585938 10.617188 -0.0585938 C 14.3125 -0.0585938 17.832031 -3.578125 21.351562 -12.644531 C 21.46875 -12.941406 21.527344 -13.238281 21.527344 -13.476562 C 21.527344 -14.492188 20.8125 -15.207031 20.039062 -15.207031 C 19.441406 -15.207031 18.84375 -14.789062 18.488281 -13.894531 Z M 11.511719 -38.226562 C 12.523438 -38.226562 13.179688 -37.453125 13.179688 -35.425781 C 13.179688 -30.117188 10.554688 -23.972656 5.785156 -17.890625 C 6.082031 -29.699219 8.410156 -38.226562 11.511719 -38.226562 Z M 11.511719 -38.226562" transform="translate(237.927 57.258)"/></g></g></g><g fill-opacity=".522"><g><g><path d="M 6.023438 -26.894531 C 7.335938 -26.894531 8.347656 -27.910156 8.347656 -29.222656 C 8.347656 -30.535156 7.335938 -31.546875 6.023438 -31.546875 C 4.710938 -31.546875 3.699219 -30.535156 3.699219 -29.222656 C 3.699219 -27.910156 4.710938 -26.894531 6.023438 -26.894531 Z M 7.871094 0.238281 C 11.511719 0.238281 14.609375 -3.578125 17.949219 -12.644531 C 18.070312 -12.941406 18.128906 -13.238281 18.128906 -13.476562 C 18.128906 -14.492188 17.414062 -15.207031 16.640625 -15.207031 C 16.042969 -15.207031 15.445312 -14.789062 15.089844 -13.894531 C 12.164062 -6.679688 10.316406 -3.457031 8.347656 -3.457031 C 6.917969 -3.457031 5.664062 -4.710938 5.664062 -8.945312 C 5.664062 -11.511719 5.964844 -14.671875 6.976562 -21.351562 C 7.214844 -22.902344 6.203125 -23.796875 5.1875 -23.796875 C 4.234375 -23.796875 3.28125 -23.140625 2.980469 -21.527344 C 2.386719 -18.1875 1.730469 -12.40625 1.730469 -9.304688 C 1.730469 -2.324219 4.414062 0.238281 7.871094 0.238281 Z M 7.871094 0.238281" transform="translate(254.446 57.258)"/></g></g></g><g fill-opacity=".522"><g><g><path d="M 29.402344 -13.894531 C 26.539062 -6.796875 24.628906 -3.457031 23.078125 -3.457031 C 21.828125 -3.457031 20.875 -4.472656 20.875 -7.933594 C 20.875 -13.777344 21.707031 -20.753906 21.707031 -22.007812 C 21.707031 -23.257812 20.875 -24.035156 19.859375 -24.035156 C 18.84375 -24.035156 18.070312 -23.257812 17.652344 -22.066406 C 16.101562 -23.199219 14.195312 -23.734375 12.644531 -23.734375 C 7.039062 -23.734375 1.429688 -18.070312 1.429688 -9.78125 C 1.429688 -3.398438 5.007812 0.238281 9.601562 0.238281 C 12.285156 0.238281 14.96875 -1.015625 17.355469 -4.652344 C 18.25 -1.371094 20.15625 0.238281 22.839844 0.238281 C 26.300781 0.238281 28.984375 -3.699219 32.265625 -12.644531 C 32.382812 -12.941406 32.441406 -13.238281 32.441406 -13.476562 C 32.441406 -14.433594 31.726562 -15.089844 30.953125 -15.089844 C 30.355469 -15.089844 29.757812 -14.730469 29.402344 -13.894531 Z M 10.199219 -3.457031 C 7.394531 -3.457031 5.367188 -5.488281 5.367188 -9.960938 C 5.367188 -16.160156 9.363281 -20.21875 13.359375 -20.21875 C 15.089844 -20.21875 16.816406 -19.261719 17.355469 -18.429688 C 17.472656 -9.066406 14.371094 -3.457031 10.199219 -3.457031 Z M 10.199219 -3.457031" transform="translate(267.566 57.258)"/></g></g></g><g fill="#FFF"><g><g><path d="M 33.574219 -23.4375 C 32.917969 -23.4375 32.441406 -23.199219 31.847656 -22.421875 C 29.582031 -19.5 27.253906 -19.082031 23.316406 -19.082031 C 21.886719 -19.082031 21.171875 -18.1875 21.171875 -17.234375 C 21.171875 -15.746094 22.363281 -15.328125 23.972656 -15.328125 C 25.167969 -15.328125 26.300781 -15.445312 27.375 -15.625 C 27.492188 -14.96875 27.550781 -14.195312 27.550781 -13.539062 C 27.550781 -7.039062 23.855469 -3.21875 18.84375 -3.21875 C 13.417969 -3.21875 8.945312 -7.691406 8.945312 -17.054688 C 8.945312 -30.953125 17.117188 -38.703125 23.378906 -38.703125 C 26.179688 -38.703125 27.613281 -37.214844 27.613281 -34.707031 C 27.613281 -33.457031 27.195312 -32.085938 26.417969 -30.535156 C 26.242188 -30.175781 26.121094 -29.757812 26.121094 -29.339844 C 26.121094 -28.445312 26.894531 -27.671875 27.910156 -27.671875 C 28.566406 -27.671875 29.28125 -28.03125 29.757812 -28.925781 C 30.890625 -31.070312 31.488281 -33.160156 31.488281 -35.007812 C 31.488281 -39.480469 28.507812 -42.460938 23.257812 -42.460938 C 14.550781 -42.460938 4.769531 -32.917969 4.769531 -17.292969 C 4.769531 -5.308594 10.617188 0.535156 18.84375 0.535156 C 26.242188 0.535156 31.667969 -4.890625 31.667969 -13.417969 C 31.667969 -14.550781 31.488281 -15.863281 31.25 -16.9375 C 32.5625 -17.652344 33.695312 -18.605469 34.589844 -19.738281 C 35.246094 -20.574219 35.425781 -21.171875 35.425781 -21.648438 C 35.425781 -22.601562 34.589844 -23.4375 33.574219 -23.4375 Z M 33.574219 -23.4375" transform="translate(66.576 54.622)"/></g></g></g><g fill="#FFF"><g><g><path d="M 29.402344 -13.894531 C 26.539062 -6.796875 24.628906 -3.457031 23.078125 -3.457031 C 21.828125 -3.457031 20.875 -4.472656 20.875 -7.933594 C 20.875 -13.777344 21.707031 -20.753906 21.707031 -22.007812 C 21.707031 -23.257812 20.875 -24.035156 19.859375 -24.035156 C 18.84375 -24.035156 18.070312 -23.257812 17.652344 -22.066406 C 16.101562 -23.199219 14.195312 -23.734375 12.644531 -23.734375 C 7.039062 -23.734375 1.429688 -18.070312 1.429688 -9.78125 C 1.429688 -3.398438 5.007812 0.238281 9.601562 0.238281 C 12.285156 0.238281 14.96875 -1.015625 17.355469 -4.652344 C 18.25 -1.371094 20.15625 0.238281 22.839844 0.238281 C 26.300781 0.238281 28.984375 -3.699219 32.265625 -12.644531 C 32.382812 -12.941406 32.441406 -13.238281 32.441406 -13.476562 C 32.441406 -14.433594 31.726562 -15.089844 30.953125 -15.089844 C 30.355469 -15.089844 29.757812 -14.730469 29.402344 -13.894531 Z M 10.199219 -3.457031 C 7.394531 -3.457031 5.367188 -5.488281 5.367188 -9.960938 C 5.367188 -16.160156 9.363281 -20.21875 13.359375 -20.21875 C 15.089844 -20.21875 16.816406 -19.261719 17.355469 -18.429688 C 17.472656 -9.066406 14.371094 -3.457031 10.199219 -3.457031 Z M 10.199219 -3.457031" transform="translate(102.18 54.622)"/></g></g></g><g fill="#FFF"><g><g><path d="M 26.71875 -13.894531 C 23.675781 -6.621094 22.125 -3.699219 20.574219 -3.699219 C 19.679688 -3.699219 19.082031 -4.292969 19.082031 -5.726562 C 19.082031 -9.542969 20.039062 -15.386719 20.039062 -18.1875 C 20.039062 -21.46875 17.832031 -23.675781 14.550781 -23.675781 C 11.449219 -23.675781 8.527344 -21.886719 6.261719 -18.488281 C 6.382812 -19.738281 6.5 -20.875 6.5 -21.648438 C 6.5 -22.960938 5.605469 -23.617188 4.652344 -23.617188 C 3.699219 -23.617188 2.683594 -22.902344 2.5625 -21.589844 C 2.148438 -16.878906 1.492188 -6.621094 1.492188 -1.910156 C 1.492188 -0.597656 2.445312 0.0585938 3.398438 0.0585938 C 4.414062 0.0585938 5.425781 -0.597656 5.425781 -1.910156 C 5.425781 -3.996094 5.488281 -6.261719 5.605469 -8.585938 C 6.382812 -15.207031 10.375 -20.039062 13.597656 -20.039062 C 15.207031 -20.039062 16.101562 -19.082031 16.101562 -17.234375 C 16.101562 -15.207031 15.148438 -9.78125 15.148438 -6.082031 C 15.148438 -1.96875 17.117188 0 19.976562 0 C 23.378906 0 25.703125 -2.863281 29.582031 -12.644531 C 29.699219 -12.941406 29.757812 -13.238281 29.757812 -13.476562 C 29.757812 -14.433594 29.042969 -15.089844 28.269531 -15.089844 C 27.671875 -15.089844 27.074219 -14.730469 26.71875 -13.894531 Z M 26.71875 -13.894531" transform="translate(129.613 54.622)"/></g></g></g><g fill="#FFF"><g><g><path d="M 31.667969 -13.894531 C 29.339844 -8.289062 26.417969 -3.757812 24.273438 -3.757812 C 22.125 -3.757812 21.113281 -7.632812 20.574219 -12.164062 C 23.558594 -17.117188 29.28125 -28.386719 29.28125 -36.082031 C 29.28125 -40.136719 27.253906 -42.28125 24.273438 -42.28125 C 20.21875 -42.28125 16.398438 -38.527344 16.339844 -23.675781 C 15.386719 -24.273438 14.253906 -24.628906 12.882812 -24.628906 C 5.964844 -24.628906 1.429688 -15.984375 1.429688 -8.886719 C 1.429688 -3.101562 4.769531 0.121094 9.003906 0.121094 C 12.761719 0.121094 15.984375 -2.742188 17.832031 -6.320312 C 18.726562 -2.386719 20.992188 -0.0585938 23.734375 -0.0585938 C 28.507812 -0.0585938 31.90625 -6.144531 34.53125 -12.644531 C 34.648438 -12.941406 34.707031 -13.179688 34.707031 -13.476562 C 34.707031 -14.433594 33.933594 -15.207031 33.160156 -15.207031 C 32.621094 -15.207031 32.023438 -14.789062 31.667969 -13.894531 Z M 24.09375 -38.585938 C 24.867188 -38.585938 25.40625 -38.046875 25.40625 -36.199219 C 25.40625 -33.457031 23.378906 -24.691406 20.21875 -18.308594 C 20.15625 -19.679688 20.15625 -20.933594 20.15625 -22.007812 C 20.15625 -36.019531 22.722656 -38.585938 24.09375 -38.585938 Z M 9.363281 -3.578125 C 6.976562 -3.578125 5.367188 -5.25 5.367188 -9.125 C 5.367188 -14.253906 8.527344 -21.050781 13.359375 -21.050781 C 15.566406 -21.050781 17.054688 -19.324219 17.054688 -15.984375 C 17.054688 -8.410156 12.582031 -3.578125 9.363281 -3.578125 Z M 9.363281 -3.578125" transform="translate(154.362 54.622)"/></g></g></g><g fill="#FFF"><g><g><path d="M 27.96875 -13.894531 C 25.226562 -7.039062 23.378906 -3.519531 21.945312 -3.519531 C 20.457031 -3.519531 19.859375 -5.664062 19.859375 -10.792969 C 19.859375 -13.476562 20.039062 -16.9375 20.8125 -21.945312 C 20.992188 -23.140625 20.15625 -24.035156 19.023438 -24.035156 C 17.890625 -24.035156 17.117188 -23.378906 16.996094 -22.304688 C 16.757812 -20.039062 16.460938 -17.535156 16.28125 -14.96875 C 15.328125 -7.097656 11.628906 -3.519531 8.230469 -3.519531 C 6.203125 -3.519531 5.1875 -4.59375 5.1875 -6.796875 C 5.1875 -10.257812 6.621094 -16.460938 6.621094 -20.8125 C 6.621094 -23.019531 4.890625 -24.929688 2.804688 -24.929688 C 1.667969 -24.929688 0.894531 -24.210938 0.894531 -23.199219 C 0.894531 -21.648438 2.625 -22.007812 2.625 -19.738281 C 2.625 -16.699219 1.253906 -11.152344 1.253906 -6.558594 C 1.253906 -2.503906 3.996094 0.179688 7.933594 0.179688 C 11.269531 0.179688 14.253906 -1.730469 16.460938 -5.785156 C 17.292969 -1.429688 19.324219 0.179688 21.589844 0.179688 C 24.929688 0.179688 27.253906 -3.101562 30.832031 -12.644531 C 30.953125 -12.941406 31.011719 -13.179688 31.011719 -13.417969 C 31.011719 -14.433594 30.234375 -15.089844 29.460938 -15.089844 C 28.925781 -15.089844 28.328125 -14.730469 27.96875 -13.894531 Z M 27.96875 -13.894531" transform="translate(184.062 54.622)"/></g></g></g><g fill="#FFF"><g><g><path d="M 27.195312 -13.894531 C 24.867188 -8.410156 23.199219 -4.652344 20.574219 -2.445312 C 21.171875 -9.601562 21.589844 -16.28125 21.589844 -17.949219 C 21.589844 -21.171875 17.832031 -24.09375 12.941406 -24.09375 C 6.976562 -24.09375 1.429688 -18.546875 1.429688 -10.316406 C 1.429688 -4.53125 4.890625 -0.894531 9.78125 -0.894531 C 12.285156 -0.894531 14.789062 -2.085938 16.816406 -4.472656 C 16.757812 -2.980469 16.640625 -1.550781 16.519531 -0.296875 C 10.078125 2.980469 6.261719 5.605469 6.261719 9.960938 C 6.261719 12.703125 8.46875 14.910156 11.925781 14.910156 C 17.652344 14.910156 19.324219 9.898438 20.15625 2.324219 C 25.285156 -1.191406 27.550781 -5.902344 30.058594 -12.644531 C 30.175781 -12.941406 30.234375 -13.238281 30.234375 -13.476562 C 30.234375 -14.492188 29.519531 -15.207031 28.746094 -15.207031 C 28.207031 -15.207031 27.613281 -14.789062 27.195312 -13.894531 Z M 10.136719 -4.59375 C 7.335938 -4.59375 5.367188 -6.621094 5.367188 -10.375 C 5.367188 -16.101562 8.648438 -20.394531 13.476562 -20.394531 C 15.207031 -20.394531 16.996094 -19.441406 17.535156 -18.429688 C 17.292969 -11.75 16.28125 -4.59375 10.136719 -4.59375 Z M 11.925781 11.210938 C 10.855469 11.210938 10.136719 10.554688 10.136719 9.542969 C 10.136719 7.691406 12.285156 5.84375 16.101562 3.816406 C 15.386719 9.003906 14.195312 11.210938 11.925781 11.210938 Z M 11.925781 11.210938" transform="translate(210.064 54.622)"/></g></g></g><g fill="#FFF"><g><g><path d="M 18.488281 -13.894531 C 17.117188 -10.257812 13.777344 -3.757812 10.617188 -3.757812 C 8.289062 -3.757812 6.320312 -6.796875 5.902344 -12.761719 C 13.957031 -21.410156 17.117188 -28.804688 17.117188 -35.425781 C 17.117188 -39.539062 15.027344 -41.925781 12.046875 -41.925781 C 5.308594 -41.925781 1.847656 -32.742188 1.847656 -15.445312 C 1.847656 -5.007812 5.488281 -0.0585938 10.617188 -0.0585938 C 14.3125 -0.0585938 17.832031 -3.578125 21.351562 -12.644531 C 21.46875 -12.941406 21.527344 -13.238281 21.527344 -13.476562 C 21.527344 -14.492188 20.8125 -15.207031 20.039062 -15.207031 C 19.441406 -15.207031 18.84375 -14.789062 18.488281 -13.894531 Z M 11.511719 -38.226562 C 12.523438 -38.226562 13.179688 -37.453125 13.179688 -35.425781 C 13.179688 -30.117188 10.554688 -23.972656 5.785156 -17.890625 C 6.082031 -29.699219 8.410156 -38.226562 11.511719 -38.226562 Z M 11.511719 -38.226562" transform="translate(235.29 54.622)"/></g></g></g><g fill="#FFF"><g><g><path d="M 6.023438 -26.894531 C 7.335938 -26.894531 8.347656 -27.910156 8.347656 -29.222656 C 8.347656 -30.535156 7.335938 -31.546875 6.023438 -31.546875 C 4.710938 -31.546875 3.699219 -30.535156 3.699219 -29.222656 C 3.699219 -27.910156 4.710938 -26.894531 6.023438 -26.894531 Z M 7.871094 0.238281 C 11.511719 0.238281 14.609375 -3.578125 17.949219 -12.644531 C 18.070312 -12.941406 18.128906 -13.238281 18.128906 -13.476562 C 18.128906 -14.492188 17.414062 -15.207031 16.640625 -15.207031 C 16.042969 -15.207031 15.445312 -14.789062 15.089844 -13.894531 C 12.164062 -6.679688 10.316406 -3.457031 8.347656 -3.457031 C 6.917969 -3.457031 5.664062 -4.710938 5.664062 -8.945312 C 5.664062 -11.511719 5.964844 -14.671875 6.976562 -21.351562 C 7.214844 -22.902344 6.203125 -23.796875 5.1875 -23.796875 C 4.234375 -23.796875 3.28125 -23.140625 2.980469 -21.527344 C 2.386719 -18.1875 1.730469 -12.40625 1.730469 -9.304688 C 1.730469 -2.324219 4.414062 0.238281 7.871094 0.238281 Z M 7.871094 0.238281" transform="translate(251.81 54.622)"/></g></g></g><g fill="#FFF"><g><g><path d="M 29.402344 -13.894531 C 26.539062 -6.796875 24.628906 -3.457031 23.078125 -3.457031 C 21.828125 -3.457031 20.875 -4.472656 20.875 -7.933594 C 20.875 -13.777344 21.707031 -20.753906 21.707031 -22.007812 C 21.707031 -23.257812 20.875 -24.035156 19.859375 -24.035156 C 18.84375 -24.035156 18.070312 -23.257812 17.652344 -22.066406 C 16.101562 -23.199219 14.195312 -23.734375 12.644531 -23.734375 C 7.039062 -23.734375 1.429688 -18.070312 1.429688 -9.78125 C 1.429688 -3.398438 5.007812 0.238281 9.601562 0.238281 C 12.285156 0.238281 14.96875 -1.015625 17.355469 -4.652344 C 18.25 -1.371094 20.15625 0.238281 22.839844 0.238281 C 26.300781 0.238281 28.984375 -3.699219 32.265625 -12.644531 C 32.382812 -12.941406 32.441406 -13.238281 32.441406 -13.476562 C 32.441406 -14.433594 31.726562 -15.089844 30.953125 -15.089844 C 30.355469 -15.089844 29.757812 -14.730469 29.402344 -13.894531 Z M 10.199219 -3.457031 C 7.394531 -3.457031 5.367188 -5.488281 5.367188 -9.960938 C 5.367188 -16.160156 9.363281 -20.21875 13.359375 -20.21875 C 15.089844 -20.21875 16.816406 -19.261719 17.355469 -18.429688 C 17.472656 -9.066406 14.371094 -3.457031 10.199219 -3.457031 Z M 10.199219 -3.457031" transform="translate(264.93 54.622)"/></g></g></g></svg>